<svg width="787" height="162" viewBox="0 0 787 162" fill="none" xmlns="http://www.w3.org/2000/svg">
<g filter="url(#filter0_i_1523_2)">
<path d="M773 0H14C8.47715 0 4 4.47715 4 10V144C4 149.523 8.47715 154 14 154H773C778.523 154 783 149.523 783 144V10C783 4.47715 778.523 0 773 0Z" fill="#FFB703"/>
</g>
<g filter="url(#filter1_i_1523_2)">
<path d="M233.182 153.525H213.575V92H233.182V153.525Z" fill="#FB8500"/>
</g>
<g filter="url(#filter2_i_1523_2)">
<path d="M193 153H179V102H193V153Z" fill="#FB8500"/>
</g>
<g filter="url(#filter3_i_1523_2)">
<path d="M217.409 153.676H204.214V112.271H217.409V153.676Z" fill="#24B14B"/>
</g>
<g filter="url(#filter4_i_1523_2)">
<path d="M170.195 153.406H157V112H170.195V153.406Z" fill="#24B14B"/>
</g>
<g filter="url(#filter5_i_1523_2)">
<path d="M205.105 153.642H191.91V121.258H205.105V153.642Z" fill="#3ACB63"/>
</g>
<g filter="url(#filter6_i_1523_2)">
<path d="M181.195 137.384H168V105H181.195V137.384Z" fill="#3ACB63"/>
</g>
<g filter="url(#filter7_i_1523_2)">
<path d="M205.195 137.384H192V105H205.195V137.384Z" fill="#3ACB63"/>
</g>
<g filter="url(#filter8_i_1523_2)">
<path d="M192.304 153.08H179.109V132.705H192.304V153.08Z" fill="#50DE77"/>
</g>
<g filter="url(#filter9_i_1523_2)">
<path d="M217.195 112.375H204V92H217.195V112.375Z" fill="#50DE77"/>
</g>
<g filter="url(#filter10_i_1523_2)">
<path d="M181.195 152.551H168V137.423H181.195V152.551Z" fill="#77F299"/>
</g>
<g filter="url(#filter11_i_1523_2)">
<path d="M193.195 133.128H180V118H193.195V133.128Z" fill="#77F299"/>
</g>
<g filter="url(#filter12_i_1523_2)">
<path d="M269 153H255V102H269V153Z" fill="#FB8500"/>
</g>
<g filter="url(#filter13_i_1523_2)">
<path d="M293.409 153.676H280.214V112.271H293.409V153.676Z" fill="#24B14B"/>
</g>
<g filter="url(#filter14_i_1523_2)">
<path d="M246.195 153.406H233V112H246.195V153.406Z" fill="#24B14B"/>
</g>
<g filter="url(#filter15_i_1523_2)">
<path d="M281.105 153.642H267.91V121.258H281.105V153.642Z" fill="#3ACB63"/>
</g>
<g filter="url(#filter16_i_1523_2)">
<path d="M257.195 137.384H244V105H257.195V137.384Z" fill="#3ACB63"/>
</g>
<g filter="url(#filter17_i_1523_2)">
<path d="M281.195 137.384H268V105H281.195V137.384Z" fill="#3ACB63"/>
</g>
<g filter="url(#filter18_i_1523_2)">
<path d="M268.304 153.08H255.109V132.705H268.304V153.08Z" fill="#50DE77"/>
</g>
<g filter="url(#filter19_i_1523_2)">
<path d="M293.195 112.375H280V92H293.195V112.375Z" fill="#50DE77"/>
</g>
<g filter="url(#filter20_i_1523_2)">
<path d="M257.195 152.551H244V137.423H257.195V152.551Z" fill="#77F299"/>
</g>
<g filter="url(#filter21_i_1523_2)">
<path d="M269.195 133.128H256V118H269.195V133.128Z" fill="#77F299"/>
</g>
<g filter="url(#filter22_i_1523_2)">
<path d="M366 153H352V118H366V153Z" fill="#FB8500"/>
</g>
<g filter="url(#filter23_i_1523_2)">
<path d="M390.409 153.676H377.214V112.271H390.409V153.676Z" fill="#24B14B"/>
</g>
<g filter="url(#filter24_i_1523_2)">
<path d="M343.195 153.406H330V112H343.195V153.406Z" fill="#24B14B"/>
</g>
<g filter="url(#filter25_i_1523_2)">
<path d="M378.105 153.642H364.91V121.258H378.105V153.642Z" fill="#3ACB63"/>
</g>
<g filter="url(#filter26_i_1523_2)">
<path d="M354.195 137.384H341V105H354.195V137.384Z" fill="#3ACB63"/>
</g>
<g filter="url(#filter27_i_1523_2)">
<path d="M378.195 137.384H365V105H378.195V137.384Z" fill="#3ACB63"/>
</g>
<g filter="url(#filter28_i_1523_2)">
<path d="M390.195 112.375H377V92H390.195V112.375Z" fill="#50DE77"/>
</g>
<g filter="url(#filter29_i_1523_2)">
<path d="M354.195 152.551H341V137.423H354.195V152.551Z" fill="#77F299"/>
</g>
<g filter="url(#filter30_i_1523_2)">
<path d="M366.195 133.128H353V118H366.195V133.128Z" fill="#77F299"/>
</g>
<g filter="url(#filter31_i_1523_2)">
<path d="M343.195 117.128H330V102H343.195V117.128Z" fill="#77F299"/>
</g>
<g filter="url(#filter32_i_1523_2)">
<path d="M306 153H292V102H306V153Z" fill="#FB8500"/>
</g>
<g filter="url(#filter33_i_1523_2)">
<path d="M330.409 153.676H317.214V112.271H330.409V153.676Z" fill="#24B14B"/>
</g>
<g filter="url(#filter34_i_1523_2)">
<path d="M318.105 153.642H304.91V121.258H318.105V153.642Z" fill="#3ACB63"/>
</g>
<g filter="url(#filter35_i_1523_2)">
<path d="M318.195 137.384H305V105H318.195V137.384Z" fill="#3ACB63"/>
</g>
<g filter="url(#filter36_i_1523_2)">
<path d="M305.304 153.08H292.109V132.705H305.304V153.08Z" fill="#50DE77"/>
</g>
<g filter="url(#filter37_i_1523_2)">
<path d="M330.195 112.375H317V92H330.195V112.375Z" fill="#50DE77"/>
</g>
<g filter="url(#filter38_i_1523_2)">
<path d="M306.195 133.128H293V118H306.195V133.128Z" fill="#77F299"/>
</g>
<path d="M64.8865 53.2954H61.341C61.2046 52.5378 60.9509 51.8711 60.5796 51.2954C60.2084 50.7196 59.7539 50.231 59.216 49.8294C58.6781 49.4279 58.0759 49.1249 57.4092 48.9204C56.7501 48.7158 56.0493 48.6135 55.3069 48.6135C53.966 48.6135 52.7653 48.9507 51.7046 49.6249C50.6516 50.2991 49.8183 51.2878 49.2046 52.5908C48.5986 53.8938 48.2956 55.4847 48.2956 57.3635C48.2956 59.2575 48.5986 60.856 49.2046 62.159C49.8183 63.462 50.6554 64.4469 51.716 65.1135C52.7766 65.7802 53.9698 66.1135 55.2956 66.1135C56.0304 66.1135 56.7274 66.0151 57.3865 65.8181C58.0531 65.6135 58.6554 65.3143 59.1933 64.9204C59.7312 64.5264 60.1857 64.0454 60.5569 63.4772C60.9357 62.9014 61.1971 62.2423 61.341 61.4999L64.8865 61.5113C64.6971 62.6552 64.3296 63.7082 63.7842 64.6704C63.2463 65.6249 62.5531 66.4507 61.7046 67.1476C60.8637 67.837 59.9016 68.3711 58.8183 68.7499C57.7349 69.1287 56.5531 69.3181 55.2728 69.3181C53.2577 69.3181 51.4622 68.8408 49.8865 67.8863C48.3107 66.9241 47.0683 65.5491 46.1592 63.7613C45.2577 61.9734 44.8069 59.8408 44.8069 57.3635C44.8069 54.8787 45.2615 52.7461 46.1706 50.9658C47.0796 49.1779 48.3221 47.8067 49.8978 46.8522C51.4736 45.8901 53.2653 45.409 55.2728 45.409C56.5077 45.409 57.6592 45.587 58.7274 45.9431C59.8031 46.2916 60.769 46.8067 61.6251 47.4885C62.4812 48.1628 63.1895 48.9885 63.7501 49.9658C64.3107 50.9355 64.6895 52.0454 64.8865 53.2954ZM89.3041 57.3635C89.3041 59.8484 88.8495 61.9847 87.9404 63.7726C87.0314 65.5529 85.7851 66.9241 84.2018 67.8863C82.626 68.8408 80.8344 69.3181 78.8268 69.3181C76.8117 69.3181 75.0124 68.8408 73.4291 67.8863C71.8533 66.9241 70.6109 65.5491 69.7018 63.7613C68.7927 61.9734 68.3382 59.8408 68.3382 57.3635C68.3382 54.8787 68.7927 52.7461 69.7018 50.9658C70.6109 49.1779 71.8533 47.8067 73.4291 46.8522C75.0124 45.8901 76.8117 45.409 78.8268 45.409C80.8344 45.409 82.626 45.8901 84.2018 46.8522C85.7851 47.8067 87.0314 49.1779 87.9404 50.9658C88.8495 52.7461 89.3041 54.8787 89.3041 57.3635ZM85.8268 57.3635C85.8268 55.4696 85.52 53.8749 84.9063 52.5794C84.3003 51.2764 83.467 50.2916 82.4063 49.6249C81.3533 48.9507 80.1601 48.6135 78.8268 48.6135C77.4859 48.6135 76.2889 48.9507 75.2359 49.6249C74.1829 50.2916 73.3495 51.2764 72.7359 52.5794C72.1298 53.8749 71.8268 55.4696 71.8268 57.3635C71.8268 59.2575 72.1298 60.856 72.7359 62.159C73.3495 63.4544 74.1829 64.4393 75.2359 65.1135C76.2889 65.7802 77.4859 66.1135 78.8268 66.1135C80.1601 66.1135 81.3533 65.7802 82.4063 65.1135C83.467 64.4393 84.3003 63.4544 84.9063 62.159C85.52 60.856 85.8268 59.2575 85.8268 57.3635ZM113.898 57.3635C113.898 59.8484 113.443 61.9847 112.534 63.7726C111.625 65.5529 110.379 66.9241 108.795 67.8863C107.22 68.8408 105.428 69.3181 103.42 69.3181C101.405 69.3181 99.6062 68.8408 98.0228 67.8863C96.4471 66.9241 95.2046 65.5491 94.2956 63.7613C93.3865 61.9734 92.9319 59.8408 92.9319 57.3635C92.9319 54.8787 93.3865 52.7461 94.2956 50.9658C95.2046 49.1779 96.4471 47.8067 98.0228 46.8522C99.6062 45.8901 101.405 45.409 103.42 45.409C105.428 45.409 107.22 45.8901 108.795 46.8522C110.379 47.8067 111.625 49.1779 112.534 50.9658C113.443 52.7461 113.898 54.8787 113.898 57.3635ZM110.42 57.3635C110.42 55.4696 110.114 53.8749 109.5 52.5794C108.894 51.2764 108.061 50.2916 107 49.6249C105.947 48.9507 104.754 48.6135 103.42 48.6135C102.08 48.6135 100.883 48.9507 99.8296 49.6249C98.7766 50.2916 97.9433 51.2764 97.3296 52.5794C96.7236 53.8749 96.4206 55.4696 96.4206 57.3635C96.4206 59.2575 96.7236 60.856 97.3296 62.159C97.9433 63.4544 98.7766 64.4393 99.8296 65.1135C100.883 65.7802 102.08 66.1135 103.42 66.1135C104.754 66.1135 105.947 65.7802 107 65.1135C108.061 64.4393 108.894 63.4544 109.5 62.159C110.114 60.856 110.42 59.2575 110.42 57.3635ZM118.276 68.9999V45.7272H126.571C128.374 45.7272 129.87 46.0378 131.06 46.659C132.257 47.2802 133.151 48.1401 133.741 49.2385C134.332 50.3294 134.628 51.5908 134.628 53.0226C134.628 54.4469 134.329 55.7007 133.73 56.784C133.139 57.8597 132.245 58.6969 131.048 59.2954C129.859 59.8938 128.363 60.1931 126.56 60.1931H120.276V57.1704H126.241C127.378 57.1704 128.302 57.0075 129.014 56.6817C129.734 56.356 130.26 55.8825 130.594 55.2613C130.927 54.6401 131.094 53.8938 131.094 53.0226C131.094 52.1438 130.923 51.3825 130.582 50.7385C130.249 50.0946 129.723 49.6022 129.003 49.2613C128.291 48.9128 127.355 48.7385 126.196 48.7385H121.787V68.9999H118.276ZM129.764 58.4999L135.514 68.9999H131.514L125.878 58.4999H129.764ZM146.435 68.9999H138.901V45.7272H146.673C148.954 45.7272 150.912 46.1931 152.548 47.1249C154.185 48.0491 155.438 49.3787 156.31 51.1135C157.188 52.8408 157.628 54.9128 157.628 57.3294C157.628 59.7537 157.185 61.837 156.298 63.5794C155.42 65.3219 154.147 66.6628 152.48 67.6022C150.813 68.534 148.798 68.9999 146.435 68.9999ZM142.412 65.9317H146.241C148.014 65.9317 149.488 65.5984 150.662 64.9317C151.836 64.2575 152.715 63.284 153.298 62.0113C153.882 60.731 154.173 59.1704 154.173 57.3294C154.173 55.5037 153.882 53.9544 153.298 52.6817C152.723 51.409 151.863 50.4431 150.719 49.784C149.575 49.1249 148.154 48.7954 146.457 48.7954H142.412V65.9317ZM165.506 45.7272V68.9999H161.994V45.7272H165.506ZM189.403 45.7272V68.9999H186.176L174.347 51.9317H174.131V68.9999H170.619V45.7272H173.869L185.71 62.8181H185.926V45.7272H189.403ZM196.491 68.9999H192.764L201.139 45.7272H205.196L213.571 68.9999H209.844L203.264 49.9544H203.082L196.491 68.9999ZM197.116 59.8863H209.207V62.8408H197.116V59.8863ZM213.034 48.7499V45.7272H231.045V48.7499H223.784V68.9999H220.284V48.7499H213.034ZM235.026 68.9999V45.7272H249.616V48.7499H238.537V55.8408H248.855V58.8522H238.537V65.9772H249.753V68.9999H235.026ZM261.628 48.7499V45.7272H279.639V48.7499H272.378V68.9999H268.878V48.7499H261.628ZM287.131 45.7272V68.9999H283.619V45.7272H287.131ZM292.244 45.7272H296.506L303.915 63.8181H304.188L311.597 45.7272H315.858V68.9999H312.517V52.159H312.301L305.438 68.9658H302.665L295.801 52.1476H295.585V68.9999H292.244V45.7272ZM320.963 68.9999V45.7272H335.554V48.7499H324.474V55.8408H334.793V58.8522H324.474V65.9772H335.69V68.9999H320.963ZM352.938 51.8408C352.816 50.7651 352.316 49.9317 351.438 49.3408C350.559 48.7423 349.453 48.4431 348.119 48.4431C347.165 48.4431 346.339 48.5946 345.642 48.8976C344.945 49.1931 344.403 49.6022 344.017 50.1249C343.638 50.6401 343.449 51.2272 343.449 51.8863C343.449 52.4393 343.578 52.9166 343.835 53.3181C344.1 53.7196 344.445 54.0567 344.869 54.3294C345.301 54.5946 345.763 54.8181 346.256 54.9999C346.748 55.1741 347.222 55.3181 347.676 55.4317L349.949 56.0226C350.691 56.2044 351.453 56.4507 352.233 56.7613C353.013 57.0719 353.737 57.481 354.403 57.9885C355.07 58.4961 355.608 59.1249 356.017 59.8749C356.434 60.6249 356.642 61.5226 356.642 62.5681C356.642 63.8863 356.301 65.0567 355.619 66.0794C354.945 67.1022 353.964 67.909 352.676 68.4999C351.396 69.0908 349.847 69.3863 348.028 69.3863C346.286 69.3863 344.778 69.1097 343.506 68.5567C342.233 68.0037 341.237 67.2196 340.517 66.2044C339.797 65.1817 339.4 63.9696 339.324 62.5681H342.847C342.915 63.409 343.188 64.1097 343.665 64.6704C344.15 65.2234 344.767 65.6363 345.517 65.909C346.275 66.1741 347.104 66.3067 348.006 66.3067C348.998 66.3067 349.881 66.1514 350.653 65.8408C351.434 65.5226 352.047 65.0832 352.494 64.5226C352.941 63.9544 353.165 63.2916 353.165 62.534C353.165 61.8446 352.968 61.2802 352.574 60.8408C352.188 60.4014 351.661 60.0378 350.994 59.7499C350.335 59.462 349.589 59.2082 348.756 58.9885L346.006 58.2385C344.142 57.731 342.665 56.9847 341.574 55.9999C340.491 55.0151 339.949 53.712 339.949 52.0908C339.949 50.7499 340.313 49.5794 341.04 48.5794C341.767 47.5794 342.752 46.8029 343.994 46.2499C345.237 45.6893 346.638 45.409 348.199 45.409C349.775 45.409 351.165 45.6855 352.369 46.2385C353.581 46.7916 354.536 47.5529 355.233 48.5226C355.93 49.4847 356.294 50.5908 356.324 51.8408H352.938ZM368.159 48.7499V45.7272H386.17V48.7499H378.909V68.9999H375.409V48.7499H368.159ZM409.366 57.3635C409.366 59.8484 408.912 61.9847 408.003 63.7726C407.094 65.5529 405.848 66.9241 404.264 67.8863C402.688 68.8408 400.897 69.3181 398.889 69.3181C396.874 69.3181 395.075 68.8408 393.491 67.8863C391.916 66.9241 390.673 65.5491 389.764 63.7613C388.855 61.9734 388.401 59.8408 388.401 57.3635C388.401 54.8787 388.855 52.7461 389.764 50.9658C390.673 49.1779 391.916 47.8067 393.491 46.8522C395.075 45.8901 396.874 45.409 398.889 45.409C400.897 45.409 402.688 45.8901 404.264 46.8522C405.848 47.8067 407.094 49.1779 408.003 50.9658C408.912 52.7461 409.366 54.8787 409.366 57.3635ZM405.889 57.3635C405.889 55.4696 405.582 53.8749 404.969 52.5794C404.363 51.2764 403.529 50.2916 402.469 49.6249C401.416 48.9507 400.223 48.6135 398.889 48.6135C397.548 48.6135 396.351 48.9507 395.298 49.6249C394.245 50.2916 393.412 51.2764 392.798 52.5794C392.192 53.8749 391.889 55.4696 391.889 57.3635C391.889 59.2575 392.192 60.856 392.798 62.159C393.412 63.4544 394.245 64.4393 395.298 65.1135C396.351 65.7802 397.548 66.1135 398.889 66.1135C400.223 66.1135 401.416 65.7802 402.469 65.1135C403.529 64.4393 404.363 63.4544 404.969 62.159C405.582 60.856 405.889 59.2575 405.889 57.3635ZM422.213 45.7272H426.474L433.884 63.8181H434.156L441.565 45.7272H445.827V68.9999H442.486V52.159H442.27L435.406 68.9658H432.634L425.77 52.1476H425.554V68.9999H422.213V45.7272ZM450.932 68.9999V45.7272H465.523V48.7499H454.443V55.8408H464.761V58.8522H454.443V65.9772H465.659V68.9999H450.932ZM470.213 68.9999V45.7272H484.804V48.7499H473.724V55.8408H484.043V58.8522H473.724V65.9772H484.94V68.9999H470.213ZM488.347 48.7499V45.7272H506.358V48.7499H499.097V68.9999H495.597V48.7499H488.347ZM523.364 68.9999L516.909 45.7272H520.602L525.136 63.7499H525.352L530.068 45.7272H533.727L538.443 63.7613H538.659L543.182 45.7272H546.886L540.42 68.9999H536.886L531.989 51.5681H531.807L526.909 68.9999H523.364ZM553.599 45.7272V68.9999H550.088V45.7272H553.599ZM557.565 48.7499V45.7272H575.577V48.7499H568.315V68.9999H564.815V48.7499H557.565ZM579.557 68.9999V45.7272H583.068V55.8408H594.67V45.7272H598.193V68.9999H594.67V58.8522H583.068V68.9999H579.557ZM610.832 52.9999V50.8181C610.832 50.1741 610.954 49.4961 611.196 48.784C611.438 48.0719 611.776 47.3901 612.207 46.7385C612.639 46.087 613.147 45.5302 613.73 45.0681L615.412 46.2726C614.95 46.9469 614.556 47.6514 614.23 48.3863C613.904 49.1211 613.741 49.9204 613.741 50.784V52.9999H610.832ZM616.628 52.9999V50.8181C616.628 50.1741 616.749 49.4961 616.991 48.784C617.234 48.0719 617.571 47.3901 618.003 46.7385C618.435 46.087 618.942 45.5302 619.526 45.0681L621.207 46.2726C620.745 46.9469 620.351 47.6514 620.026 48.3863C619.7 49.1211 619.537 49.9204 619.537 50.784V52.9999H616.628ZM640.151 53.0794C639.931 52.3901 639.635 51.7726 639.264 51.2272C638.901 50.6741 638.465 50.2044 637.957 49.8181C637.45 49.4241 636.87 49.1249 636.219 48.9204C635.575 48.7158 634.866 48.6135 634.094 48.6135C632.783 48.6135 631.601 48.9507 630.548 49.6249C629.495 50.2991 628.662 51.2878 628.048 52.5908C627.442 53.8863 627.139 55.4734 627.139 57.3522C627.139 59.2385 627.446 60.8332 628.06 62.1363C628.673 63.4393 629.514 64.4279 630.582 65.1022C631.651 65.7764 632.866 66.1135 634.23 66.1135C635.495 66.1135 636.598 65.856 637.537 65.3408C638.484 64.8257 639.215 64.0984 639.73 63.159C640.253 62.212 640.514 61.0984 640.514 59.8181L641.423 59.9885H634.764V57.0908H643.912V59.7385C643.912 61.6931 643.495 63.3901 642.662 64.8294C641.836 66.2613 640.692 67.3673 639.23 68.1476C637.776 68.9279 636.109 69.3181 634.23 69.3181C632.124 69.3181 630.276 68.8332 628.685 67.8635C627.101 66.8938 625.866 65.5188 624.98 63.7385C624.094 61.9507 623.651 59.8294 623.651 57.3749C623.651 55.5188 623.908 53.8522 624.423 52.3749C624.938 50.8976 625.662 49.6438 626.594 48.6135C627.533 47.5757 628.635 46.784 629.901 46.2385C631.173 45.6855 632.563 45.409 634.071 45.409C635.329 45.409 636.499 45.5946 637.582 45.9658C638.673 46.337 639.643 46.8635 640.491 47.5454C641.348 48.2272 642.056 49.0378 642.616 49.9772C643.177 50.909 643.556 51.9431 643.753 53.0794H640.151ZM648.369 68.9999V45.7272H656.665C658.468 45.7272 659.964 46.0378 661.153 46.659C662.35 47.2802 663.244 48.1401 663.835 49.2385C664.426 50.3294 664.722 51.5908 664.722 53.0226C664.722 54.4469 664.422 55.7007 663.824 56.784C663.233 57.8597 662.339 58.6969 661.142 59.2954C659.953 59.8938 658.456 60.1931 656.653 60.1931H650.369V57.1704H656.335C657.472 57.1704 658.396 57.0075 659.108 56.6817C659.828 56.356 660.354 55.8825 660.688 55.2613C661.021 54.6401 661.188 53.8938 661.188 53.0226C661.188 52.1438 661.017 51.3825 660.676 50.7385C660.343 50.0946 659.816 49.6022 659.097 49.2613C658.384 48.9128 657.449 48.7385 656.29 48.7385H651.881V68.9999H648.369ZM659.858 58.4999L665.608 68.9999H661.608L655.972 58.4999H659.858ZM689.21 57.3635C689.21 59.8484 688.756 61.9847 687.847 63.7726C686.938 65.5529 685.691 66.9241 684.108 67.8863C682.532 68.8408 680.741 69.3181 678.733 69.3181C676.718 69.3181 674.919 68.8408 673.335 67.8863C671.759 66.9241 670.517 65.5491 669.608 63.7613C668.699 61.9734 668.244 59.8408 668.244 57.3635C668.244 54.8787 668.699 52.7461 669.608 50.9658C670.517 49.1779 671.759 47.8067 673.335 46.8522C674.919 45.8901 676.718 45.409 678.733 45.409C680.741 45.409 682.532 45.8901 684.108 46.8522C685.691 47.8067 686.938 49.1779 687.847 50.9658C688.756 52.7461 689.21 54.8787 689.21 57.3635ZM685.733 57.3635C685.733 55.4696 685.426 53.8749 684.812 52.5794C684.206 51.2764 683.373 50.2916 682.312 49.6249C681.259 48.9507 680.066 48.6135 678.733 48.6135C677.392 48.6135 676.195 48.9507 675.142 49.6249C674.089 50.2916 673.256 51.2764 672.642 52.5794C672.036 53.8749 671.733 55.4696 671.733 57.3635C671.733 59.2575 672.036 60.856 672.642 62.159C673.256 63.4544 674.089 64.4393 675.142 65.1135C676.195 65.7802 677.392 66.1135 678.733 66.1135C680.066 66.1135 681.259 65.7802 682.312 65.1135C683.373 64.4393 684.206 63.4544 684.812 62.159C685.426 60.856 685.733 59.2575 685.733 57.3635ZM708.554 45.7272H712.077V61.034C712.077 62.6628 711.694 64.106 710.929 65.3635C710.164 66.6135 709.088 67.5984 707.702 68.3181C706.315 69.0302 704.69 69.3863 702.827 69.3863C700.971 69.3863 699.349 69.0302 697.963 68.3181C696.577 67.5984 695.501 66.6135 694.736 65.3635C693.971 64.106 693.588 62.6628 693.588 61.034V45.7272H697.099V60.7499C697.099 61.8029 697.33 62.7385 697.793 63.5567C698.262 64.3749 698.925 65.0188 699.781 65.4885C700.637 65.9507 701.652 66.1817 702.827 66.1817C704.009 66.1817 705.027 65.9507 705.884 65.4885C706.747 65.0188 707.406 64.3749 707.861 63.5567C708.323 62.7385 708.554 61.8029 708.554 60.7499V45.7272ZM717.182 68.9999V45.7272H725.477C727.288 45.7272 728.788 46.0567 729.977 46.7158C731.167 47.3749 732.057 48.2764 732.648 49.4204C733.239 50.5567 733.534 51.837 733.534 53.2613C733.534 54.6931 733.235 55.981 732.636 57.1249C732.045 58.2613 731.152 59.1628 729.955 59.8294C728.765 60.4885 727.269 60.8181 725.466 60.8181H719.761V57.8408H725.148C726.292 57.8408 727.22 57.6438 727.932 57.2499C728.644 56.8484 729.167 56.3029 729.5 55.6135C729.833 54.9241 730 54.1401 730 53.2613C730 52.3825 729.833 51.6022 729.5 50.9204C729.167 50.2385 728.64 49.7044 727.92 49.3181C727.208 48.9317 726.269 48.7385 725.102 48.7385H720.693V68.9999H717.182ZM740.298 45.7272V47.909C740.298 48.5529 740.177 49.231 739.935 49.9431C739.7 50.6476 739.366 51.3257 738.935 51.9772C738.503 52.6287 737.995 53.1893 737.412 53.659L735.73 52.4544C736.177 51.8029 736.563 51.1097 736.889 50.3749C737.223 49.6401 737.389 48.8294 737.389 47.9431V45.7272H740.298ZM746.082 45.7272V47.909C746.082 48.5529 745.961 49.231 745.719 49.9431C745.484 50.6476 745.151 51.3257 744.719 51.9772C744.287 52.6287 743.779 53.1893 743.196 53.659L741.514 52.4544C741.961 51.8029 742.348 51.1097 742.673 50.3749C743.007 49.6401 743.173 48.8294 743.173 47.9431V45.7272H746.082Z" fill="#4B4A67"/>
<path d="M547 102C547 96.4772 551.477 92 557 92H755C760.523 92 765 96.4772 765 102V117C765 122.523 760.523 127 755 127H557C551.477 127 547 122.523 547 117V102Z" fill="#434343"/>
<path d="M658.5 77L677.12 92.75H639.88L658.5 77Z" fill="#434343"/>
<path d="M556.409 115V103.364H563.386V104.614H557.818V108.545H562.864V109.795H557.818V115H556.409ZM565.8 115V103.364H569.732C570.641 103.364 571.387 103.519 571.97 103.83C572.554 104.136 572.985 104.559 573.266 105.097C573.546 105.634 573.686 106.246 573.686 106.932C573.686 107.617 573.546 108.225 573.266 108.756C572.985 109.286 572.555 109.703 571.976 110.006C571.396 110.305 570.656 110.455 569.754 110.455H566.572V109.182H569.709C570.33 109.182 570.83 109.091 571.209 108.909C571.591 108.727 571.868 108.47 572.038 108.136C572.213 107.799 572.3 107.398 572.3 106.932C572.3 106.466 572.213 106.059 572.038 105.71C571.864 105.362 571.586 105.093 571.203 104.903C570.821 104.71 570.315 104.614 569.686 104.614H567.209V115H565.8ZM571.277 109.773L574.141 115H572.504L569.686 109.773H571.277ZM577.443 103.364V115H576.034V103.364H577.443ZM580.268 115V103.364H587.291V104.614H581.678V108.545H586.928V109.795H581.678V113.75H587.382V115H580.268ZM599.058 103.364V115H597.695L591.354 105.864H591.24V115H589.831V103.364H591.195L597.558 112.523H597.672V103.364H599.058ZM605.469 115H601.878V103.364H605.628C606.757 103.364 607.723 103.597 608.526 104.062C609.329 104.525 609.944 105.189 610.372 106.057C610.8 106.92 611.014 107.955 611.014 109.159C611.014 110.371 610.798 111.415 610.366 112.29C609.935 113.161 609.306 113.831 608.48 114.301C607.654 114.767 606.651 115 605.469 115ZM603.287 113.75H605.378C606.34 113.75 607.137 113.564 607.77 113.193C608.402 112.822 608.874 112.294 609.185 111.608C609.495 110.922 609.651 110.106 609.651 109.159C609.651 108.22 609.497 107.411 609.19 106.733C608.884 106.051 608.425 105.528 607.815 105.165C607.205 104.797 606.446 104.614 605.537 104.614H603.287V113.75ZM619.741 106.273C619.673 105.697 619.397 105.25 618.912 104.932C618.427 104.614 617.832 104.455 617.128 104.455C616.613 104.455 616.162 104.538 615.776 104.705C615.393 104.871 615.094 105.1 614.878 105.392C614.666 105.684 614.56 106.015 614.56 106.386C614.56 106.697 614.634 106.964 614.781 107.188C614.933 107.407 615.126 107.591 615.361 107.739C615.596 107.883 615.842 108.002 616.099 108.097C616.357 108.187 616.594 108.261 616.81 108.318L617.991 108.636C618.295 108.716 618.632 108.826 619.003 108.966C619.378 109.106 619.736 109.297 620.077 109.54C620.421 109.778 620.705 110.085 620.929 110.46C621.152 110.835 621.264 111.295 621.264 111.841C621.264 112.47 621.099 113.038 620.77 113.545C620.444 114.053 619.967 114.456 619.338 114.756C618.713 115.055 617.954 115.205 617.06 115.205C616.226 115.205 615.505 115.07 614.895 114.801C614.289 114.532 613.812 114.157 613.463 113.676C613.118 113.195 612.923 112.636 612.878 112H614.332C614.37 112.439 614.518 112.803 614.776 113.091C615.037 113.375 615.366 113.587 615.764 113.727C616.166 113.864 616.598 113.932 617.06 113.932C617.598 113.932 618.08 113.845 618.509 113.67C618.937 113.492 619.276 113.246 619.526 112.932C619.776 112.614 619.901 112.242 619.901 111.818C619.901 111.432 619.793 111.117 619.577 110.875C619.361 110.633 619.077 110.436 618.724 110.284C618.372 110.133 617.991 110 617.582 109.886L616.151 109.477C615.241 109.216 614.522 108.843 613.991 108.358C613.461 107.873 613.196 107.239 613.196 106.455C613.196 105.803 613.372 105.235 613.724 104.75C614.08 104.261 614.558 103.883 615.156 103.614C615.759 103.341 616.431 103.205 617.173 103.205C617.923 103.205 618.59 103.339 619.173 103.608C619.757 103.873 620.219 104.237 620.56 104.699C620.904 105.161 621.086 105.686 621.105 106.273H619.741ZM625.399 113.409L625.308 114.023C625.244 114.455 625.145 114.917 625.013 115.409C624.884 115.902 624.75 116.366 624.609 116.801C624.469 117.237 624.354 117.583 624.263 117.841H623.24C623.289 117.598 623.354 117.278 623.433 116.881C623.513 116.483 623.592 116.038 623.672 115.545C623.755 115.057 623.823 114.557 623.876 114.045L623.945 113.409H625.399ZM638.929 106.273C638.861 105.697 638.584 105.25 638.099 104.932C637.615 104.614 637.02 104.455 636.315 104.455C635.8 104.455 635.349 104.538 634.963 104.705C634.58 104.871 634.281 105.1 634.065 105.392C633.853 105.684 633.747 106.015 633.747 106.386C633.747 106.697 633.821 106.964 633.969 107.188C634.12 107.407 634.313 107.591 634.548 107.739C634.783 107.883 635.029 108.002 635.287 108.097C635.545 108.187 635.781 108.261 635.997 108.318L637.179 108.636C637.482 108.716 637.819 108.826 638.19 108.966C638.565 109.106 638.923 109.297 639.264 109.54C639.609 109.778 639.893 110.085 640.116 110.46C640.34 110.835 640.452 111.295 640.452 111.841C640.452 112.47 640.287 113.038 639.957 113.545C639.632 114.053 639.154 114.456 638.526 114.756C637.901 115.055 637.141 115.205 636.247 115.205C635.414 115.205 634.692 115.07 634.082 114.801C633.476 114.532 632.999 114.157 632.651 113.676C632.306 113.195 632.111 112.636 632.065 112H633.52C633.558 112.439 633.705 112.803 633.963 113.091C634.224 113.375 634.554 113.587 634.952 113.727C635.353 113.864 635.785 113.932 636.247 113.932C636.785 113.932 637.268 113.845 637.696 113.67C638.124 113.492 638.463 113.246 638.713 112.932C638.963 112.614 639.088 112.242 639.088 111.818C639.088 111.432 638.98 111.117 638.764 110.875C638.548 110.633 638.264 110.436 637.912 110.284C637.56 110.133 637.179 110 636.77 109.886L635.338 109.477C634.429 109.216 633.709 108.843 633.179 108.358C632.649 107.873 632.384 107.239 632.384 106.455C632.384 105.803 632.56 105.235 632.912 104.75C633.268 104.261 633.745 103.883 634.344 103.614C634.946 103.341 635.618 103.205 636.361 103.205C637.111 103.205 637.777 103.339 638.361 103.608C638.944 103.873 639.406 104.237 639.747 104.699C640.092 105.161 640.274 105.686 640.293 106.273H638.929ZM642.132 104.614V103.364H650.859V104.614H647.2V115H645.791V104.614H642.132ZM660.67 103.364H662.08V111.068C662.08 111.864 661.892 112.574 661.517 113.199C661.146 113.82 660.621 114.311 659.943 114.67C659.265 115.027 658.47 115.205 657.557 115.205C656.644 115.205 655.848 115.027 655.17 114.67C654.492 114.311 653.966 113.82 653.591 113.199C653.22 112.574 653.034 111.864 653.034 111.068V103.364H654.443V110.955C654.443 111.523 654.568 112.028 654.818 112.472C655.068 112.911 655.424 113.258 655.886 113.511C656.352 113.761 656.909 113.886 657.557 113.886C658.205 113.886 658.761 113.761 659.227 113.511C659.693 113.258 660.049 112.911 660.295 112.472C660.545 112.028 660.67 111.523 660.67 110.955V103.364ZM668.484 115H664.893V103.364H668.643C669.772 103.364 670.738 103.597 671.541 104.062C672.344 104.525 672.96 105.189 673.388 106.057C673.816 106.92 674.03 107.955 674.03 109.159C674.03 110.371 673.814 111.415 673.382 112.29C672.95 113.161 672.321 113.831 671.496 114.301C670.67 114.767 669.666 115 668.484 115ZM666.303 113.75H668.393C669.356 113.75 670.153 113.564 670.786 113.193C671.418 112.822 671.89 112.294 672.2 111.608C672.511 110.922 672.666 110.106 672.666 109.159C672.666 108.22 672.513 107.411 672.206 106.733C671.899 106.051 671.441 105.528 670.831 105.165C670.221 104.797 669.462 104.614 668.553 104.614H666.303V113.75ZM674.847 103.364H676.46L679.688 108.795H679.824L683.051 103.364H684.665L680.46 110.205V115H679.051V110.205L674.847 103.364ZM690.987 115V103.364H695.055C695.866 103.364 696.535 103.504 697.061 103.784C697.588 104.061 697.98 104.434 698.237 104.903C698.495 105.369 698.624 105.886 698.624 106.455C698.624 106.955 698.535 107.367 698.357 107.693C698.182 108.019 697.951 108.277 697.663 108.466C697.379 108.655 697.071 108.795 696.737 108.886V109C697.093 109.023 697.451 109.148 697.811 109.375C698.171 109.602 698.472 109.928 698.714 110.352C698.957 110.777 699.078 111.295 699.078 111.909C699.078 112.492 698.946 113.017 698.68 113.483C698.415 113.949 697.997 114.318 697.425 114.591C696.853 114.864 696.108 115 695.192 115H690.987ZM692.396 113.75H695.192C696.112 113.75 696.766 113.572 697.152 113.216C697.542 112.856 697.737 112.42 697.737 111.909C697.737 111.515 697.637 111.152 697.436 110.818C697.235 110.481 696.949 110.212 696.578 110.011C696.207 109.807 695.768 109.705 695.26 109.705H692.396V113.75ZM692.396 108.477H695.01C695.434 108.477 695.817 108.394 696.158 108.227C696.502 108.061 696.775 107.826 696.976 107.523C697.18 107.22 697.283 106.864 697.283 106.455C697.283 105.943 697.105 105.509 696.749 105.153C696.393 104.794 695.828 104.614 695.055 104.614H692.396V108.477ZM709.03 103.364H710.439V111.068C710.439 111.864 710.251 112.574 709.876 113.199C709.505 113.82 708.981 114.311 708.303 114.67C707.625 115.027 706.829 115.205 705.916 115.205C705.003 115.205 704.208 115.027 703.53 114.67C702.852 114.311 702.325 113.82 701.95 113.199C701.579 112.574 701.393 111.864 701.393 111.068V103.364H702.803V110.955C702.803 111.523 702.928 112.028 703.178 112.472C703.428 112.911 703.784 113.258 704.246 113.511C704.712 113.761 705.268 113.886 705.916 113.886C706.564 113.886 707.121 113.761 707.587 113.511C708.053 113.258 708.409 112.911 708.655 112.472C708.905 112.028 709.03 111.523 709.03 110.955V103.364ZM716.844 115H713.253V103.364H717.003C718.132 103.364 719.098 103.597 719.901 104.062C720.704 104.525 721.319 105.189 721.747 106.057C722.175 106.92 722.389 107.955 722.389 109.159C722.389 110.371 722.173 111.415 721.741 112.29C721.31 113.161 720.681 113.831 719.855 114.301C719.029 114.767 718.026 115 716.844 115ZM714.662 113.75H716.753C717.715 113.75 718.512 113.564 719.145 113.193C719.777 112.822 720.249 112.294 720.56 111.608C720.87 110.922 721.026 110.106 721.026 109.159C721.026 108.22 720.872 107.411 720.565 106.733C720.259 106.051 719.8 105.528 719.19 105.165C718.58 104.797 717.821 104.614 716.912 104.614H714.662V113.75ZM728.344 115H724.753V103.364H728.503C729.632 103.364 730.598 103.597 731.401 104.062C732.204 104.525 732.819 105.189 733.247 106.057C733.675 106.92 733.889 107.955 733.889 109.159C733.889 110.371 733.673 111.415 733.241 112.29C732.81 113.161 732.181 113.831 731.355 114.301C730.529 114.767 729.526 115 728.344 115ZM726.162 113.75H728.253C729.215 113.75 730.012 113.564 730.645 113.193C731.277 112.822 731.749 112.294 732.06 111.608C732.37 110.922 732.526 110.106 732.526 109.159C732.526 108.22 732.372 107.411 732.065 106.733C731.759 106.051 731.3 105.528 730.69 105.165C730.08 104.797 729.321 104.614 728.412 104.614H726.162V113.75ZM734.706 103.364H736.32L739.547 108.795H739.683L742.911 103.364H744.524L740.32 110.205V115H738.911V110.205L734.706 103.364ZM746.595 115.091C746.315 115.091 746.074 114.991 745.874 114.79C745.673 114.589 745.572 114.348 745.572 114.068C745.572 113.788 745.673 113.547 745.874 113.347C746.074 113.146 746.315 113.045 746.595 113.045C746.875 113.045 747.116 113.146 747.317 113.347C747.518 113.547 747.618 113.788 747.618 114.068C747.618 114.254 747.571 114.424 747.476 114.58C747.385 114.735 747.262 114.86 747.107 114.955C746.955 115.045 746.785 115.091 746.595 115.091ZM751.001 115.091C750.721 115.091 750.481 114.991 750.28 114.79C750.079 114.589 749.979 114.348 749.979 114.068C749.979 113.788 750.079 113.547 750.28 113.347C750.481 113.146 750.721 113.045 751.001 113.045C751.282 113.045 751.522 113.146 751.723 113.347C751.924 113.547 752.024 113.788 752.024 114.068C752.024 114.254 751.977 114.424 751.882 114.58C751.791 114.735 751.668 114.86 751.513 114.955C751.361 115.045 751.191 115.091 751.001 115.091ZM755.408 115.091C755.127 115.091 754.887 114.991 754.686 114.79C754.485 114.589 754.385 114.348 754.385 114.068C754.385 113.788 754.485 113.547 754.686 113.347C754.887 113.146 755.127 113.045 755.408 113.045C755.688 113.045 755.929 113.146 756.129 113.347C756.33 113.547 756.43 113.788 756.43 114.068C756.43 114.254 756.383 114.424 756.288 114.58C756.197 114.735 756.074 114.86 755.919 114.955C755.768 115.045 755.597 115.091 755.408 115.091Z" fill="white"/>
<path d="M156.5 46L141.345 33.25H171.655L156.5 46Z" fill="#434343"/>
<path d="M65 13C65 7.47715 69.4772 3 75 3H236C241.523 3 246 7.47715 246 13V23C246 28.5228 241.523 33 236 33H75C69.4772 33 65 28.5228 65 23V13Z" fill="#434343"/>
<path d="M83.801 16.3636C83.7414 15.8598 83.4994 15.4688 83.0752 15.1903C82.6509 14.9119 82.1306 14.7727 81.5141 14.7727C81.0633 14.7727 80.6689 14.8456 80.3309 14.9915C79.9961 15.1373 79.7343 15.3378 79.5454 15.593C79.3597 15.8482 79.2669 16.1383 79.2669 16.4631C79.2669 16.7348 79.3316 16.9685 79.4608 17.1641C79.5934 17.3563 79.7624 17.517 79.9679 17.6463C80.1734 17.7723 80.3889 17.8767 80.6142 17.9595C80.8396 18.0391 81.0468 18.1037 81.2357 18.1534L82.2698 18.4318C82.5349 18.5014 82.8299 18.5975 83.1547 18.7202C83.4829 18.8428 83.7961 19.0102 84.0944 19.2223C84.396 19.4311 84.6445 19.6996 84.8401 20.0277C85.0356 20.3558 85.1334 20.7585 85.1334 21.2358C85.1334 21.786 84.9892 22.2831 84.7009 22.7273C84.4159 23.1714 83.9982 23.5244 83.4481 23.7862C82.9012 24.0481 82.2366 24.179 81.4544 24.179C80.7253 24.179 80.0939 24.0613 79.5603 23.826C79.03 23.5907 78.6124 23.2625 78.3074 22.8416C78.0058 22.4207 77.8351 21.9318 77.7954 21.375H79.0681C79.1012 21.7595 79.2305 22.0777 79.4559 22.3295C79.6846 22.5781 79.9729 22.7637 80.3209 22.8864C80.6722 23.0057 81.0501 23.0653 81.4544 23.0653C81.9251 23.0653 82.3477 22.9891 82.7222 22.8366C83.0967 22.6809 83.3934 22.4654 83.6121 22.1903C83.8309 21.9119 83.9402 21.5871 83.9402 21.2159C83.9402 20.8778 83.8458 20.6027 83.6569 20.3906C83.4679 20.1785 83.2194 20.0062 82.9111 19.8736C82.6029 19.741 82.2698 19.625 81.9118 19.5256L80.659 19.1676C79.8635 18.9389 79.2338 18.6125 78.7698 18.1882C78.3058 17.764 78.0738 17.2088 78.0738 16.5227C78.0738 15.9527 78.2279 15.4555 78.5361 15.0312C78.8477 14.6037 79.2653 14.2723 79.789 14.0369C80.316 13.7983 80.9043 13.679 81.5539 13.679C82.2101 13.679 82.7935 13.7966 83.3039 14.032C83.8143 14.264 84.2187 14.5821 84.5169 14.9865C84.8186 15.3909 84.9776 15.8499 84.9942 16.3636H83.801ZM88.3935 13.8182V24H87.1606V13.8182H88.3935ZM90.8657 13.8182H92.3373L95.7975 22.2699H95.9168L99.377 13.8182H100.849V24H99.6952V16.2642H99.5958L96.414 24H95.3003L92.1185 16.2642H92.0191V24H90.8657V13.8182ZM103.321 24V13.8182H106.761C107.56 13.8182 108.213 13.9624 108.72 14.2507C109.23 14.5357 109.608 14.9219 109.854 15.4091C110.099 15.8963 110.221 16.4399 110.221 17.0398C110.221 17.6397 110.099 18.1849 109.854 18.6754C109.612 19.166 109.237 19.5571 108.73 19.8487C108.223 20.1371 107.573 20.2812 106.781 20.2812H104.315V19.1875H106.741C107.288 19.1875 107.727 19.093 108.059 18.9041C108.39 18.7152 108.631 18.46 108.78 18.1385C108.932 17.8137 109.008 17.4474 109.008 17.0398C109.008 16.6321 108.932 16.2675 108.78 15.946C108.631 15.6245 108.389 15.3726 108.054 15.1903C107.719 15.0047 107.275 14.9119 106.721 14.9119H104.554V24H103.321ZM112.208 24V13.8182H113.441V22.9062H118.173V24H112.208ZM120.083 24V13.8182H126.227V14.9119H121.316V18.3523H125.909V19.446H121.316V22.9062H126.307V24H120.083ZM134.018 16.3636C133.958 15.8598 133.716 15.4688 133.292 15.1903C132.868 14.9119 132.347 14.7727 131.731 14.7727C131.28 14.7727 130.886 14.8456 130.548 14.9915C130.213 15.1373 129.951 15.3378 129.762 15.593C129.577 15.8482 129.484 16.1383 129.484 16.4631C129.484 16.7348 129.548 16.9685 129.678 17.1641C129.81 17.3563 129.979 17.517 130.185 17.6463C130.39 17.7723 130.606 17.8767 130.831 17.9595C131.057 18.0391 131.264 18.1037 131.453 18.1534L132.487 18.4318C132.752 18.5014 133.047 18.5975 133.372 18.7202C133.7 18.8428 134.013 19.0102 134.311 19.2223C134.613 19.4311 134.861 19.6996 135.057 20.0277C135.253 20.3558 135.35 20.7585 135.35 21.2358C135.35 21.786 135.206 22.2831 134.918 22.7273C134.633 23.1714 134.215 23.5244 133.665 23.7862C133.118 24.0481 132.454 24.179 131.671 24.179C130.942 24.179 130.311 24.0613 129.777 23.826C129.247 23.5907 128.829 23.2625 128.524 22.8416C128.223 22.4207 128.052 21.9318 128.012 21.375H129.285C129.318 21.7595 129.447 22.0777 129.673 22.3295C129.901 22.5781 130.19 22.7637 130.538 22.8864C130.889 23.0057 131.267 23.0653 131.671 23.0653C132.142 23.0653 132.565 22.9891 132.939 22.8366C133.314 22.6809 133.61 22.4654 133.829 22.1903C134.048 21.9119 134.157 21.5871 134.157 21.2159C134.157 20.8778 134.063 20.6027 133.874 20.3906C133.685 20.1785 133.436 20.0062 133.128 19.8736C132.82 19.741 132.487 19.625 132.129 19.5256L130.876 19.1676C130.08 18.9389 129.451 18.6125 128.987 18.1882C128.523 17.764 128.291 17.2088 128.291 16.5227C128.291 15.9527 128.445 15.4555 128.753 15.0312C129.065 14.6037 129.482 14.2723 130.006 14.0369C130.533 13.7983 131.121 13.679 131.771 13.679C132.427 13.679 133.01 13.7966 133.521 14.032C134.031 14.264 134.436 14.5821 134.734 14.9865C135.035 15.3909 135.195 15.8499 135.211 16.3636H134.018ZM136.821 14.9119V13.8182H144.457V14.9119H141.255V24H140.022V14.9119H136.821ZM147.472 22.608L147.393 23.1449C147.336 23.5227 147.25 23.9271 147.134 24.358C147.022 24.7888 146.904 25.1948 146.781 25.576C146.659 25.9571 146.558 26.2604 146.478 26.4858H145.583C145.626 26.2737 145.683 25.9936 145.752 25.6456C145.822 25.2976 145.891 24.9081 145.961 24.4773C146.034 24.0497 146.094 23.6122 146.14 23.1648L146.2 22.608H147.472ZM153.743 24V13.8182H159.888V14.9119H154.976V18.3523H159.569V19.446H154.976V22.9062H159.967V24H153.743ZM162.528 24H161.235L164.974 13.8182H166.246L169.985 24H168.692L165.65 15.429H165.57L162.528 24ZM163.005 20.0227H168.215V21.1165H163.005V20.0227ZM177.139 16.3636C177.079 15.8598 176.837 15.4688 176.413 15.1903C175.989 14.9119 175.469 14.7727 174.852 14.7727C174.401 14.7727 174.007 14.8456 173.669 14.9915C173.334 15.1373 173.072 15.3378 172.883 15.593C172.698 15.8482 172.605 16.1383 172.605 16.4631C172.605 16.7348 172.67 16.9685 172.799 17.1641C172.931 17.3563 173.1 17.517 173.306 17.6463C173.511 17.7723 173.727 17.8767 173.952 17.9595C174.178 18.0391 174.385 18.1037 174.574 18.1534L175.608 18.4318C175.873 18.5014 176.168 18.5975 176.493 18.7202C176.821 18.8428 177.134 19.0102 177.432 19.2223C177.734 19.4311 177.983 19.6996 178.178 20.0277C178.374 20.3558 178.471 20.7585 178.471 21.2358C178.471 21.786 178.327 22.2831 178.039 22.7273C177.754 23.1714 177.336 23.5244 176.786 23.7862C176.239 24.0481 175.575 24.179 174.792 24.179C174.063 24.179 173.432 24.0613 172.898 23.826C172.368 23.5907 171.95 23.2625 171.645 22.8416C171.344 22.4207 171.173 21.9318 171.133 21.375H172.406C172.439 21.7595 172.568 22.0777 172.794 22.3295C173.023 22.5781 173.311 22.7637 173.659 22.8864C174.01 23.0057 174.388 23.0653 174.792 23.0653C175.263 23.0653 175.686 22.9891 176.06 22.8366C176.435 22.6809 176.731 22.4654 176.95 22.1903C177.169 21.9119 177.278 21.5871 177.278 21.2159C177.278 20.8778 177.184 20.6027 176.995 20.3906C176.806 20.1785 176.557 20.0062 176.249 19.8736C175.941 19.741 175.608 19.625 175.25 19.5256L173.997 19.1676C173.202 18.9389 172.572 18.6125 172.108 18.1882C171.644 17.764 171.412 17.2088 171.412 16.5227C171.412 15.9527 171.566 15.4555 171.874 15.0312C172.186 14.6037 172.603 14.2723 173.127 14.0369C173.654 13.7983 174.242 13.679 174.892 13.679C175.548 13.679 176.131 13.7966 176.642 14.032C177.152 14.264 177.557 14.5821 177.855 14.9865C178.157 15.3909 178.316 15.8499 178.332 16.3636H177.139ZM179.624 13.8182H181.036L183.859 18.571H183.979L186.803 13.8182H188.214L184.536 19.804V24H183.303V19.804L179.624 13.8182ZM190.922 22.608L190.842 23.1449C190.786 23.5227 190.699 23.9271 190.583 24.358C190.471 24.7888 190.353 25.1948 190.23 25.576C190.108 25.9571 190.007 26.2604 189.927 26.4858H189.032C189.075 26.2737 189.132 25.9936 189.201 25.6456C189.271 25.2976 189.341 24.9081 189.41 24.4773C189.483 24.0497 189.543 23.6122 189.589 23.1648L189.649 22.608H190.922ZM197.192 24V13.8182H203.297V14.9119H198.425V18.3523H202.84V19.446H198.425V24H197.192ZM204.555 24H203.262L207.001 13.8182H208.274L212.012 24H210.72L207.677 15.429H207.597L204.555 24ZM205.032 20.0227H210.242V21.1165H205.032V20.0227ZM219.166 16.3636C219.107 15.8598 218.865 15.4688 218.441 15.1903C218.016 14.9119 217.496 14.7727 216.879 14.7727C216.429 14.7727 216.034 14.8456 215.696 14.9915C215.361 15.1373 215.1 15.3378 214.911 15.593C214.725 15.8482 214.632 16.1383 214.632 16.4631C214.632 16.7348 214.697 16.9685 214.826 17.1641C214.959 17.3563 215.128 17.517 215.333 17.6463C215.539 17.7723 215.754 17.8767 215.98 17.9595C216.205 18.0391 216.412 18.1037 216.601 18.1534L217.635 18.4318C217.9 18.5014 218.195 18.5975 218.52 18.7202C218.848 18.8428 219.161 19.0102 219.46 19.2223C219.761 19.4311 220.01 19.6996 220.205 20.0277C220.401 20.3558 220.499 20.7585 220.499 21.2358C220.499 21.786 220.355 22.2831 220.066 22.7273C219.781 23.1714 219.364 23.5244 218.813 23.7862C218.267 24.0481 217.602 24.179 216.82 24.179C216.091 24.179 215.459 24.0613 214.926 23.826C214.395 23.5907 213.978 23.2625 213.673 22.8416C213.371 22.4207 213.2 21.9318 213.161 21.375H214.433C214.467 21.7595 214.596 22.0777 214.821 22.3295C215.05 22.5781 215.338 22.7637 215.686 22.8864C216.038 23.0057 216.415 23.0653 216.82 23.0653C217.29 23.0653 217.713 22.9891 218.088 22.8366C218.462 22.6809 218.759 22.4654 218.977 22.1903C219.196 21.9119 219.306 21.5871 219.306 21.2159C219.306 20.8778 219.211 20.6027 219.022 20.3906C218.833 20.1785 218.585 20.0062 218.276 19.8736C217.968 19.741 217.635 19.625 217.277 19.5256L216.024 19.1676C215.229 18.9389 214.599 18.6125 214.135 18.1882C213.671 17.764 213.439 17.2088 213.439 16.5227C213.439 15.9527 213.593 15.4555 213.901 15.0312C214.213 14.6037 214.631 14.2723 215.154 14.0369C215.681 13.7983 216.27 13.679 216.919 13.679C217.575 13.679 218.159 13.7966 218.669 14.032C219.18 14.264 219.584 14.5821 219.882 14.9865C220.184 15.3909 220.343 15.8499 220.36 16.3636H219.166ZM221.969 14.9119V13.8182H229.605V14.9119H226.404V24H225.171V14.9119H221.969Z" fill="white"/>
<defs>
<filter id="filter0_i_1523_2" x="4" y="0" width="779" height="158" filterUnits="userSpaceOnUse" color-interpolation-filters="sRGB">
<feFlood flood-opacity="0" result="BackgroundImageFix"/>
<feBlend mode="normal" in="SourceGraphic" in2="BackgroundImageFix" result="shape"/>
<feColorMatrix in="SourceAlpha" type="matrix" values="0 0 0 0 0 0 0 0 0 0 0 0 0 0 0 0 0 0 127 0" result="hardAlpha"/>
<feOffset dy="4"/>
<feGaussianBlur stdDeviation="2"/>
<feComposite in2="hardAlpha" operator="arithmetic" k2="-1" k3="1"/>
<feColorMatrix type="matrix" values="0 0 0 0 0 0 0 0 0 0 0 0 0 0 0 0 0 0 0.25 0"/>
<feBlend mode="normal" in2="shape" result="effect1_innerShadow_1523_2"/>
</filter>
<filter id="filter1_i_1523_2" x="213.575" y="92" width="19.6069" height="65.5249" filterUnits="userSpaceOnUse" color-interpolation-filters="sRGB">
<feFlood flood-opacity="0" result="BackgroundImageFix"/>
<feBlend mode="normal" in="SourceGraphic" in2="BackgroundImageFix" result="shape"/>
<feColorMatrix in="SourceAlpha" type="matrix" values="0 0 0 0 0 0 0 0 0 0 0 0 0 0 0 0 0 0 127 0" result="hardAlpha"/>
<feOffset dy="4"/>
<feGaussianBlur stdDeviation="2"/>
<feComposite in2="hardAlpha" operator="arithmetic" k2="-1" k3="1"/>
<feColorMatrix type="matrix" values="0 0 0 0 0 0 0 0 0 0 0 0 0 0 0 0 0 0 0.25 0"/>
<feBlend mode="normal" in2="shape" result="effect1_innerShadow_1523_2"/>
</filter>
<filter id="filter2_i_1523_2" x="179" y="102" width="14" height="55" filterUnits="userSpaceOnUse" color-interpolation-filters="sRGB">
<feFlood flood-opacity="0" result="BackgroundImageFix"/>
<feBlend mode="normal" in="SourceGraphic" in2="BackgroundImageFix" result="shape"/>
<feColorMatrix in="SourceAlpha" type="matrix" values="0 0 0 0 0 0 0 0 0 0 0 0 0 0 0 0 0 0 127 0" result="hardAlpha"/>
<feOffset dy="4"/>
<feGaussianBlur stdDeviation="2"/>
<feComposite in2="hardAlpha" operator="arithmetic" k2="-1" k3="1"/>
<feColorMatrix type="matrix" values="0 0 0 0 0 0 0 0 0 0 0 0 0 0 0 0 0 0 0.25 0"/>
<feBlend mode="normal" in2="shape" result="effect1_innerShadow_1523_2"/>
</filter>
<filter id="filter3_i_1523_2" x="204.214" y="112.271" width="13.1951" height="45.405" filterUnits="userSpaceOnUse" color-interpolation-filters="sRGB">
<feFlood flood-opacity="0" result="BackgroundImageFix"/>
<feBlend mode="normal" in="SourceGraphic" in2="BackgroundImageFix" result="shape"/>
<feColorMatrix in="SourceAlpha" type="matrix" values="0 0 0 0 0 0 0 0 0 0 0 0 0 0 0 0 0 0 127 0" result="hardAlpha"/>
<feOffset dy="4"/>
<feGaussianBlur stdDeviation="2"/>
<feComposite in2="hardAlpha" operator="arithmetic" k2="-1" k3="1"/>
<feColorMatrix type="matrix" values="0 0 0 0 0 0 0 0 0 0 0 0 0 0 0 0 0 0 0.25 0"/>
<feBlend mode="normal" in2="shape" result="effect1_innerShadow_1523_2"/>
</filter>
<filter id="filter4_i_1523_2" x="157" y="112" width="13.1951" height="45.406" filterUnits="userSpaceOnUse" color-interpolation-filters="sRGB">
<feFlood flood-opacity="0" result="BackgroundImageFix"/>
<feBlend mode="normal" in="SourceGraphic" in2="BackgroundImageFix" result="shape"/>
<feColorMatrix in="SourceAlpha" type="matrix" values="0 0 0 0 0 0 0 0 0 0 0 0 0 0 0 0 0 0 127 0" result="hardAlpha"/>
<feOffset dy="4"/>
<feGaussianBlur stdDeviation="2"/>
<feComposite in2="hardAlpha" operator="arithmetic" k2="-1" k3="1"/>
<feColorMatrix type="matrix" values="0 0 0 0 0 0 0 0 0 0 0 0 0 0 0 0 0 0 0.25 0"/>
<feBlend mode="normal" in2="shape" result="effect1_innerShadow_1523_2"/>
</filter>
<filter id="filter5_i_1523_2" x="191.91" y="121.258" width="13.1951" height="36.384" filterUnits="userSpaceOnUse" color-interpolation-filters="sRGB">
<feFlood flood-opacity="0" result="BackgroundImageFix"/>
<feBlend mode="normal" in="SourceGraphic" in2="BackgroundImageFix" result="shape"/>
<feColorMatrix in="SourceAlpha" type="matrix" values="0 0 0 0 0 0 0 0 0 0 0 0 0 0 0 0 0 0 127 0" result="hardAlpha"/>
<feOffset dy="4"/>
<feGaussianBlur stdDeviation="2"/>
<feComposite in2="hardAlpha" operator="arithmetic" k2="-1" k3="1"/>
<feColorMatrix type="matrix" values="0 0 0 0 0 0 0 0 0 0 0 0 0 0 0 0 0 0 0.25 0"/>
<feBlend mode="normal" in2="shape" result="effect1_innerShadow_1523_2"/>
</filter>
<filter id="filter6_i_1523_2" x="168" y="105" width="13.1951" height="36.384" filterUnits="userSpaceOnUse" color-interpolation-filters="sRGB">
<feFlood flood-opacity="0" result="BackgroundImageFix"/>
<feBlend mode="normal" in="SourceGraphic" in2="BackgroundImageFix" result="shape"/>
<feColorMatrix in="SourceAlpha" type="matrix" values="0 0 0 0 0 0 0 0 0 0 0 0 0 0 0 0 0 0 127 0" result="hardAlpha"/>
<feOffset dy="4"/>
<feGaussianBlur stdDeviation="2"/>
<feComposite in2="hardAlpha" operator="arithmetic" k2="-1" k3="1"/>
<feColorMatrix type="matrix" values="0 0 0 0 0 0 0 0 0 0 0 0 0 0 0 0 0 0 0.25 0"/>
<feBlend mode="normal" in2="shape" result="effect1_innerShadow_1523_2"/>
</filter>
<filter id="filter7_i_1523_2" x="192" y="105" width="13.1951" height="36.384" filterUnits="userSpaceOnUse" color-interpolation-filters="sRGB">
<feFlood flood-opacity="0" result="BackgroundImageFix"/>
<feBlend mode="normal" in="SourceGraphic" in2="BackgroundImageFix" result="shape"/>
<feColorMatrix in="SourceAlpha" type="matrix" values="0 0 0 0 0 0 0 0 0 0 0 0 0 0 0 0 0 0 127 0" result="hardAlpha"/>
<feOffset dy="4"/>
<feGaussianBlur stdDeviation="2"/>
<feComposite in2="hardAlpha" operator="arithmetic" k2="-1" k3="1"/>
<feColorMatrix type="matrix" values="0 0 0 0 0 0 0 0 0 0 0 0 0 0 0 0 0 0 0.25 0"/>
<feBlend mode="normal" in2="shape" result="effect1_innerShadow_1523_2"/>
</filter>
<filter id="filter8_i_1523_2" x="179.109" y="132.705" width="13.1951" height="24.375" filterUnits="userSpaceOnUse" color-interpolation-filters="sRGB">
<feFlood flood-opacity="0" result="BackgroundImageFix"/>
<feBlend mode="normal" in="SourceGraphic" in2="BackgroundImageFix" result="shape"/>
<feColorMatrix in="SourceAlpha" type="matrix" values="0 0 0 0 0 0 0 0 0 0 0 0 0 0 0 0 0 0 127 0" result="hardAlpha"/>
<feOffset dy="4"/>
<feGaussianBlur stdDeviation="2"/>
<feComposite in2="hardAlpha" operator="arithmetic" k2="-1" k3="1"/>
<feColorMatrix type="matrix" values="0 0 0 0 0 0 0 0 0 0 0 0 0 0 0 0 0 0 0.25 0"/>
<feBlend mode="normal" in2="shape" result="effect1_innerShadow_1523_2"/>
</filter>
<filter id="filter9_i_1523_2" x="204" y="92" width="13.1951" height="24.375" filterUnits="userSpaceOnUse" color-interpolation-filters="sRGB">
<feFlood flood-opacity="0" result="BackgroundImageFix"/>
<feBlend mode="normal" in="SourceGraphic" in2="BackgroundImageFix" result="shape"/>
<feColorMatrix in="SourceAlpha" type="matrix" values="0 0 0 0 0 0 0 0 0 0 0 0 0 0 0 0 0 0 127 0" result="hardAlpha"/>
<feOffset dy="4"/>
<feGaussianBlur stdDeviation="2"/>
<feComposite in2="hardAlpha" operator="arithmetic" k2="-1" k3="1"/>
<feColorMatrix type="matrix" values="0 0 0 0 0 0 0 0 0 0 0 0 0 0 0 0 0 0 0.25 0"/>
<feBlend mode="normal" in2="shape" result="effect1_innerShadow_1523_2"/>
</filter>
<filter id="filter10_i_1523_2" x="168" y="137.423" width="13.1951" height="19.1279" filterUnits="userSpaceOnUse" color-interpolation-filters="sRGB">
<feFlood flood-opacity="0" result="BackgroundImageFix"/>
<feBlend mode="normal" in="SourceGraphic" in2="BackgroundImageFix" result="shape"/>
<feColorMatrix in="SourceAlpha" type="matrix" values="0 0 0 0 0 0 0 0 0 0 0 0 0 0 0 0 0 0 127 0" result="hardAlpha"/>
<feOffset dy="4"/>
<feGaussianBlur stdDeviation="2"/>
<feComposite in2="hardAlpha" operator="arithmetic" k2="-1" k3="1"/>
<feColorMatrix type="matrix" values="0 0 0 0 0 0 0 0 0 0 0 0 0 0 0 0 0 0 0.25 0"/>
<feBlend mode="normal" in2="shape" result="effect1_innerShadow_1523_2"/>
</filter>
<filter id="filter11_i_1523_2" x="180" y="118" width="13.1951" height="19.1279" filterUnits="userSpaceOnUse" color-interpolation-filters="sRGB">
<feFlood flood-opacity="0" result="BackgroundImageFix"/>
<feBlend mode="normal" in="SourceGraphic" in2="BackgroundImageFix" result="shape"/>
<feColorMatrix in="SourceAlpha" type="matrix" values="0 0 0 0 0 0 0 0 0 0 0 0 0 0 0 0 0 0 127 0" result="hardAlpha"/>
<feOffset dy="4"/>
<feGaussianBlur stdDeviation="2"/>
<feComposite in2="hardAlpha" operator="arithmetic" k2="-1" k3="1"/>
<feColorMatrix type="matrix" values="0 0 0 0 0 0 0 0 0 0 0 0 0 0 0 0 0 0 0.25 0"/>
<feBlend mode="normal" in2="shape" result="effect1_innerShadow_1523_2"/>
</filter>
<filter id="filter12_i_1523_2" x="255" y="102" width="14" height="55" filterUnits="userSpaceOnUse" color-interpolation-filters="sRGB">
<feFlood flood-opacity="0" result="BackgroundImageFix"/>
<feBlend mode="normal" in="SourceGraphic" in2="BackgroundImageFix" result="shape"/>
<feColorMatrix in="SourceAlpha" type="matrix" values="0 0 0 0 0 0 0 0 0 0 0 0 0 0 0 0 0 0 127 0" result="hardAlpha"/>
<feOffset dy="4"/>
<feGaussianBlur stdDeviation="2"/>
<feComposite in2="hardAlpha" operator="arithmetic" k2="-1" k3="1"/>
<feColorMatrix type="matrix" values="0 0 0 0 0 0 0 0 0 0 0 0 0 0 0 0 0 0 0.25 0"/>
<feBlend mode="normal" in2="shape" result="effect1_innerShadow_1523_2"/>
</filter>
<filter id="filter13_i_1523_2" x="280.214" y="112.271" width="13.1951" height="45.405" filterUnits="userSpaceOnUse" color-interpolation-filters="sRGB">
<feFlood flood-opacity="0" result="BackgroundImageFix"/>
<feBlend mode="normal" in="SourceGraphic" in2="BackgroundImageFix" result="shape"/>
<feColorMatrix in="SourceAlpha" type="matrix" values="0 0 0 0 0 0 0 0 0 0 0 0 0 0 0 0 0 0 127 0" result="hardAlpha"/>
<feOffset dy="4"/>
<feGaussianBlur stdDeviation="2"/>
<feComposite in2="hardAlpha" operator="arithmetic" k2="-1" k3="1"/>
<feColorMatrix type="matrix" values="0 0 0 0 0 0 0 0 0 0 0 0 0 0 0 0 0 0 0.25 0"/>
<feBlend mode="normal" in2="shape" result="effect1_innerShadow_1523_2"/>
</filter>
<filter id="filter14_i_1523_2" x="233" y="112" width="13.1951" height="45.406" filterUnits="userSpaceOnUse" color-interpolation-filters="sRGB">
<feFlood flood-opacity="0" result="BackgroundImageFix"/>
<feBlend mode="normal" in="SourceGraphic" in2="BackgroundImageFix" result="shape"/>
<feColorMatrix in="SourceAlpha" type="matrix" values="0 0 0 0 0 0 0 0 0 0 0 0 0 0 0 0 0 0 127 0" result="hardAlpha"/>
<feOffset dy="4"/>
<feGaussianBlur stdDeviation="2"/>
<feComposite in2="hardAlpha" operator="arithmetic" k2="-1" k3="1"/>
<feColorMatrix type="matrix" values="0 0 0 0 0 0 0 0 0 0 0 0 0 0 0 0 0 0 0.25 0"/>
<feBlend mode="normal" in2="shape" result="effect1_innerShadow_1523_2"/>
</filter>
<filter id="filter15_i_1523_2" x="267.91" y="121.258" width="13.1951" height="36.384" filterUnits="userSpaceOnUse" color-interpolation-filters="sRGB">
<feFlood flood-opacity="0" result="BackgroundImageFix"/>
<feBlend mode="normal" in="SourceGraphic" in2="BackgroundImageFix" result="shape"/>
<feColorMatrix in="SourceAlpha" type="matrix" values="0 0 0 0 0 0 0 0 0 0 0 0 0 0 0 0 0 0 127 0" result="hardAlpha"/>
<feOffset dy="4"/>
<feGaussianBlur stdDeviation="2"/>
<feComposite in2="hardAlpha" operator="arithmetic" k2="-1" k3="1"/>
<feColorMatrix type="matrix" values="0 0 0 0 0 0 0 0 0 0 0 0 0 0 0 0 0 0 0.25 0"/>
<feBlend mode="normal" in2="shape" result="effect1_innerShadow_1523_2"/>
</filter>
<filter id="filter16_i_1523_2" x="244" y="105" width="13.1951" height="36.384" filterUnits="userSpaceOnUse" color-interpolation-filters="sRGB">
<feFlood flood-opacity="0" result="BackgroundImageFix"/>
<feBlend mode="normal" in="SourceGraphic" in2="BackgroundImageFix" result="shape"/>
<feColorMatrix in="SourceAlpha" type="matrix" values="0 0 0 0 0 0 0 0 0 0 0 0 0 0 0 0 0 0 127 0" result="hardAlpha"/>
<feOffset dy="4"/>
<feGaussianBlur stdDeviation="2"/>
<feComposite in2="hardAlpha" operator="arithmetic" k2="-1" k3="1"/>
<feColorMatrix type="matrix" values="0 0 0 0 0 0 0 0 0 0 0 0 0 0 0 0 0 0 0.25 0"/>
<feBlend mode="normal" in2="shape" result="effect1_innerShadow_1523_2"/>
</filter>
<filter id="filter17_i_1523_2" x="268" y="105" width="13.1951" height="36.384" filterUnits="userSpaceOnUse" color-interpolation-filters="sRGB">
<feFlood flood-opacity="0" result="BackgroundImageFix"/>
<feBlend mode="normal" in="SourceGraphic" in2="BackgroundImageFix" result="shape"/>
<feColorMatrix in="SourceAlpha" type="matrix" values="0 0 0 0 0 0 0 0 0 0 0 0 0 0 0 0 0 0 127 0" result="hardAlpha"/>
<feOffset dy="4"/>
<feGaussianBlur stdDeviation="2"/>
<feComposite in2="hardAlpha" operator="arithmetic" k2="-1" k3="1"/>
<feColorMatrix type="matrix" values="0 0 0 0 0 0 0 0 0 0 0 0 0 0 0 0 0 0 0.25 0"/>
<feBlend mode="normal" in2="shape" result="effect1_innerShadow_1523_2"/>
</filter>
<filter id="filter18_i_1523_2" x="255.109" y="132.705" width="13.1951" height="24.375" filterUnits="userSpaceOnUse" color-interpolation-filters="sRGB">
<feFlood flood-opacity="0" result="BackgroundImageFix"/>
<feBlend mode="normal" in="SourceGraphic" in2="BackgroundImageFix" result="shape"/>
<feColorMatrix in="SourceAlpha" type="matrix" values="0 0 0 0 0 0 0 0 0 0 0 0 0 0 0 0 0 0 127 0" result="hardAlpha"/>
<feOffset dy="4"/>
<feGaussianBlur stdDeviation="2"/>
<feComposite in2="hardAlpha" operator="arithmetic" k2="-1" k3="1"/>
<feColorMatrix type="matrix" values="0 0 0 0 0 0 0 0 0 0 0 0 0 0 0 0 0 0 0.25 0"/>
<feBlend mode="normal" in2="shape" result="effect1_innerShadow_1523_2"/>
</filter>
<filter id="filter19_i_1523_2" x="280" y="92" width="13.1951" height="24.375" filterUnits="userSpaceOnUse" color-interpolation-filters="sRGB">
<feFlood flood-opacity="0" result="BackgroundImageFix"/>
<feBlend mode="normal" in="SourceGraphic" in2="BackgroundImageFix" result="shape"/>
<feColorMatrix in="SourceAlpha" type="matrix" values="0 0 0 0 0 0 0 0 0 0 0 0 0 0 0 0 0 0 127 0" result="hardAlpha"/>
<feOffset dy="4"/>
<feGaussianBlur stdDeviation="2"/>
<feComposite in2="hardAlpha" operator="arithmetic" k2="-1" k3="1"/>
<feColorMatrix type="matrix" values="0 0 0 0 0 0 0 0 0 0 0 0 0 0 0 0 0 0 0.25 0"/>
<feBlend mode="normal" in2="shape" result="effect1_innerShadow_1523_2"/>
</filter>
<filter id="filter20_i_1523_2" x="244" y="137.423" width="13.1951" height="19.1279" filterUnits="userSpaceOnUse" color-interpolation-filters="sRGB">
<feFlood flood-opacity="0" result="BackgroundImageFix"/>
<feBlend mode="normal" in="SourceGraphic" in2="BackgroundImageFix" result="shape"/>
<feColorMatrix in="SourceAlpha" type="matrix" values="0 0 0 0 0 0 0 0 0 0 0 0 0 0 0 0 0 0 127 0" result="hardAlpha"/>
<feOffset dy="4"/>
<feGaussianBlur stdDeviation="2"/>
<feComposite in2="hardAlpha" operator="arithmetic" k2="-1" k3="1"/>
<feColorMatrix type="matrix" values="0 0 0 0 0 0 0 0 0 0 0 0 0 0 0 0 0 0 0.25 0"/>
<feBlend mode="normal" in2="shape" result="effect1_innerShadow_1523_2"/>
</filter>
<filter id="filter21_i_1523_2" x="256" y="118" width="13.1951" height="19.1279" filterUnits="userSpaceOnUse" color-interpolation-filters="sRGB">
<feFlood flood-opacity="0" result="BackgroundImageFix"/>
<feBlend mode="normal" in="SourceGraphic" in2="BackgroundImageFix" result="shape"/>
<feColorMatrix in="SourceAlpha" type="matrix" values="0 0 0 0 0 0 0 0 0 0 0 0 0 0 0 0 0 0 127 0" result="hardAlpha"/>
<feOffset dy="4"/>
<feGaussianBlur stdDeviation="2"/>
<feComposite in2="hardAlpha" operator="arithmetic" k2="-1" k3="1"/>
<feColorMatrix type="matrix" values="0 0 0 0 0 0 0 0 0 0 0 0 0 0 0 0 0 0 0.25 0"/>
<feBlend mode="normal" in2="shape" result="effect1_innerShadow_1523_2"/>
</filter>
<filter id="filter22_i_1523_2" x="352" y="118" width="14" height="39" filterUnits="userSpaceOnUse" color-interpolation-filters="sRGB">
<feFlood flood-opacity="0" result="BackgroundImageFix"/>
<feBlend mode="normal" in="SourceGraphic" in2="BackgroundImageFix" result="shape"/>
<feColorMatrix in="SourceAlpha" type="matrix" values="0 0 0 0 0 0 0 0 0 0 0 0 0 0 0 0 0 0 127 0" result="hardAlpha"/>
<feOffset dy="4"/>
<feGaussianBlur stdDeviation="2"/>
<feComposite in2="hardAlpha" operator="arithmetic" k2="-1" k3="1"/>
<feColorMatrix type="matrix" values="0 0 0 0 0 0 0 0 0 0 0 0 0 0 0 0 0 0 0.25 0"/>
<feBlend mode="normal" in2="shape" result="effect1_innerShadow_1523_2"/>
</filter>
<filter id="filter23_i_1523_2" x="377.214" y="112.271" width="13.1951" height="45.405" filterUnits="userSpaceOnUse" color-interpolation-filters="sRGB">
<feFlood flood-opacity="0" result="BackgroundImageFix"/>
<feBlend mode="normal" in="SourceGraphic" in2="BackgroundImageFix" result="shape"/>
<feColorMatrix in="SourceAlpha" type="matrix" values="0 0 0 0 0 0 0 0 0 0 0 0 0 0 0 0 0 0 127 0" result="hardAlpha"/>
<feOffset dy="4"/>
<feGaussianBlur stdDeviation="2"/>
<feComposite in2="hardAlpha" operator="arithmetic" k2="-1" k3="1"/>
<feColorMatrix type="matrix" values="0 0 0 0 0 0 0 0 0 0 0 0 0 0 0 0 0 0 0.25 0"/>
<feBlend mode="normal" in2="shape" result="effect1_innerShadow_1523_2"/>
</filter>
<filter id="filter24_i_1523_2" x="330" y="112" width="13.1951" height="45.406" filterUnits="userSpaceOnUse" color-interpolation-filters="sRGB">
<feFlood flood-opacity="0" result="BackgroundImageFix"/>
<feBlend mode="normal" in="SourceGraphic" in2="BackgroundImageFix" result="shape"/>
<feColorMatrix in="SourceAlpha" type="matrix" values="0 0 0 0 0 0 0 0 0 0 0 0 0 0 0 0 0 0 127 0" result="hardAlpha"/>
<feOffset dy="4"/>
<feGaussianBlur stdDeviation="2"/>
<feComposite in2="hardAlpha" operator="arithmetic" k2="-1" k3="1"/>
<feColorMatrix type="matrix" values="0 0 0 0 0 0 0 0 0 0 0 0 0 0 0 0 0 0 0.25 0"/>
<feBlend mode="normal" in2="shape" result="effect1_innerShadow_1523_2"/>
</filter>
<filter id="filter25_i_1523_2" x="364.91" y="121.258" width="13.1951" height="36.384" filterUnits="userSpaceOnUse" color-interpolation-filters="sRGB">
<feFlood flood-opacity="0" result="BackgroundImageFix"/>
<feBlend mode="normal" in="SourceGraphic" in2="BackgroundImageFix" result="shape"/>
<feColorMatrix in="SourceAlpha" type="matrix" values="0 0 0 0 0 0 0 0 0 0 0 0 0 0 0 0 0 0 127 0" result="hardAlpha"/>
<feOffset dy="4"/>
<feGaussianBlur stdDeviation="2"/>
<feComposite in2="hardAlpha" operator="arithmetic" k2="-1" k3="1"/>
<feColorMatrix type="matrix" values="0 0 0 0 0 0 0 0 0 0 0 0 0 0 0 0 0 0 0.25 0"/>
<feBlend mode="normal" in2="shape" result="effect1_innerShadow_1523_2"/>
</filter>
<filter id="filter26_i_1523_2" x="341" y="105" width="13.1951" height="36.384" filterUnits="userSpaceOnUse" color-interpolation-filters="sRGB">
<feFlood flood-opacity="0" result="BackgroundImageFix"/>
<feBlend mode="normal" in="SourceGraphic" in2="BackgroundImageFix" result="shape"/>
<feColorMatrix in="SourceAlpha" type="matrix" values="0 0 0 0 0 0 0 0 0 0 0 0 0 0 0 0 0 0 127 0" result="hardAlpha"/>
<feOffset dy="4"/>
<feGaussianBlur stdDeviation="2"/>
<feComposite in2="hardAlpha" operator="arithmetic" k2="-1" k3="1"/>
<feColorMatrix type="matrix" values="0 0 0 0 0 0 0 0 0 0 0 0 0 0 0 0 0 0 0.25 0"/>
<feBlend mode="normal" in2="shape" result="effect1_innerShadow_1523_2"/>
</filter>
<filter id="filter27_i_1523_2" x="365" y="105" width="13.1951" height="36.384" filterUnits="userSpaceOnUse" color-interpolation-filters="sRGB">
<feFlood flood-opacity="0" result="BackgroundImageFix"/>
<feBlend mode="normal" in="SourceGraphic" in2="BackgroundImageFix" result="shape"/>
<feColorMatrix in="SourceAlpha" type="matrix" values="0 0 0 0 0 0 0 0 0 0 0 0 0 0 0 0 0 0 127 0" result="hardAlpha"/>
<feOffset dy="4"/>
<feGaussianBlur stdDeviation="2"/>
<feComposite in2="hardAlpha" operator="arithmetic" k2="-1" k3="1"/>
<feColorMatrix type="matrix" values="0 0 0 0 0 0 0 0 0 0 0 0 0 0 0 0 0 0 0.25 0"/>
<feBlend mode="normal" in2="shape" result="effect1_innerShadow_1523_2"/>
</filter>
<filter id="filter28_i_1523_2" x="377" y="92" width="13.1951" height="24.375" filterUnits="userSpaceOnUse" color-interpolation-filters="sRGB">
<feFlood flood-opacity="0" result="BackgroundImageFix"/>
<feBlend mode="normal" in="SourceGraphic" in2="BackgroundImageFix" result="shape"/>
<feColorMatrix in="SourceAlpha" type="matrix" values="0 0 0 0 0 0 0 0 0 0 0 0 0 0 0 0 0 0 127 0" result="hardAlpha"/>
<feOffset dy="4"/>
<feGaussianBlur stdDeviation="2"/>
<feComposite in2="hardAlpha" operator="arithmetic" k2="-1" k3="1"/>
<feColorMatrix type="matrix" values="0 0 0 0 0 0 0 0 0 0 0 0 0 0 0 0 0 0 0.25 0"/>
<feBlend mode="normal" in2="shape" result="effect1_innerShadow_1523_2"/>
</filter>
<filter id="filter29_i_1523_2" x="341" y="137.423" width="13.1951" height="19.1279" filterUnits="userSpaceOnUse" color-interpolation-filters="sRGB">
<feFlood flood-opacity="0" result="BackgroundImageFix"/>
<feBlend mode="normal" in="SourceGraphic" in2="BackgroundImageFix" result="shape"/>
<feColorMatrix in="SourceAlpha" type="matrix" values="0 0 0 0 0 0 0 0 0 0 0 0 0 0 0 0 0 0 127 0" result="hardAlpha"/>
<feOffset dy="4"/>
<feGaussianBlur stdDeviation="2"/>
<feComposite in2="hardAlpha" operator="arithmetic" k2="-1" k3="1"/>
<feColorMatrix type="matrix" values="0 0 0 0 0 0 0 0 0 0 0 0 0 0 0 0 0 0 0.25 0"/>
<feBlend mode="normal" in2="shape" result="effect1_innerShadow_1523_2"/>
</filter>
<filter id="filter30_i_1523_2" x="353" y="118" width="13.1951" height="19.1279" filterUnits="userSpaceOnUse" color-interpolation-filters="sRGB">
<feFlood flood-opacity="0" result="BackgroundImageFix"/>
<feBlend mode="normal" in="SourceGraphic" in2="BackgroundImageFix" result="shape"/>
<feColorMatrix in="SourceAlpha" type="matrix" values="0 0 0 0 0 0 0 0 0 0 0 0 0 0 0 0 0 0 127 0" result="hardAlpha"/>
<feOffset dy="4"/>
<feGaussianBlur stdDeviation="2"/>
<feComposite in2="hardAlpha" operator="arithmetic" k2="-1" k3="1"/>
<feColorMatrix type="matrix" values="0 0 0 0 0 0 0 0 0 0 0 0 0 0 0 0 0 0 0.25 0"/>
<feBlend mode="normal" in2="shape" result="effect1_innerShadow_1523_2"/>
</filter>
<filter id="filter31_i_1523_2" x="330" y="102" width="13.1951" height="19.1279" filterUnits="userSpaceOnUse" color-interpolation-filters="sRGB">
<feFlood flood-opacity="0" result="BackgroundImageFix"/>
<feBlend mode="normal" in="SourceGraphic" in2="BackgroundImageFix" result="shape"/>
<feColorMatrix in="SourceAlpha" type="matrix" values="0 0 0 0 0 0 0 0 0 0 0 0 0 0 0 0 0 0 127 0" result="hardAlpha"/>
<feOffset dy="4"/>
<feGaussianBlur stdDeviation="2"/>
<feComposite in2="hardAlpha" operator="arithmetic" k2="-1" k3="1"/>
<feColorMatrix type="matrix" values="0 0 0 0 0 0 0 0 0 0 0 0 0 0 0 0 0 0 0.25 0"/>
<feBlend mode="normal" in2="shape" result="effect1_innerShadow_1523_2"/>
</filter>
<filter id="filter32_i_1523_2" x="292" y="102" width="14" height="55" filterUnits="userSpaceOnUse" color-interpolation-filters="sRGB">
<feFlood flood-opacity="0" result="BackgroundImageFix"/>
<feBlend mode="normal" in="SourceGraphic" in2="BackgroundImageFix" result="shape"/>
<feColorMatrix in="SourceAlpha" type="matrix" values="0 0 0 0 0 0 0 0 0 0 0 0 0 0 0 0 0 0 127 0" result="hardAlpha"/>
<feOffset dy="4"/>
<feGaussianBlur stdDeviation="2"/>
<feComposite in2="hardAlpha" operator="arithmetic" k2="-1" k3="1"/>
<feColorMatrix type="matrix" values="0 0 0 0 0 0 0 0 0 0 0 0 0 0 0 0 0 0 0.25 0"/>
<feBlend mode="normal" in2="shape" result="effect1_innerShadow_1523_2"/>
</filter>
<filter id="filter33_i_1523_2" x="317.214" y="112.271" width="13.1951" height="45.405" filterUnits="userSpaceOnUse" color-interpolation-filters="sRGB">
<feFlood flood-opacity="0" result="BackgroundImageFix"/>
<feBlend mode="normal" in="SourceGraphic" in2="BackgroundImageFix" result="shape"/>
<feColorMatrix in="SourceAlpha" type="matrix" values="0 0 0 0 0 0 0 0 0 0 0 0 0 0 0 0 0 0 127 0" result="hardAlpha"/>
<feOffset dy="4"/>
<feGaussianBlur stdDeviation="2"/>
<feComposite in2="hardAlpha" operator="arithmetic" k2="-1" k3="1"/>
<feColorMatrix type="matrix" values="0 0 0 0 0 0 0 0 0 0 0 0 0 0 0 0 0 0 0.25 0"/>
<feBlend mode="normal" in2="shape" result="effect1_innerShadow_1523_2"/>
</filter>
<filter id="filter34_i_1523_2" x="304.91" y="121.258" width="13.1951" height="36.384" filterUnits="userSpaceOnUse" color-interpolation-filters="sRGB">
<feFlood flood-opacity="0" result="BackgroundImageFix"/>
<feBlend mode="normal" in="SourceGraphic" in2="BackgroundImageFix" result="shape"/>
<feColorMatrix in="SourceAlpha" type="matrix" values="0 0 0 0 0 0 0 0 0 0 0 0 0 0 0 0 0 0 127 0" result="hardAlpha"/>
<feOffset dy="4"/>
<feGaussianBlur stdDeviation="2"/>
<feComposite in2="hardAlpha" operator="arithmetic" k2="-1" k3="1"/>
<feColorMatrix type="matrix" values="0 0 0 0 0 0 0 0 0 0 0 0 0 0 0 0 0 0 0.25 0"/>
<feBlend mode="normal" in2="shape" result="effect1_innerShadow_1523_2"/>
</filter>
<filter id="filter35_i_1523_2" x="305" y="105" width="13.1951" height="36.384" filterUnits="userSpaceOnUse" color-interpolation-filters="sRGB">
<feFlood flood-opacity="0" result="BackgroundImageFix"/>
<feBlend mode="normal" in="SourceGraphic" in2="BackgroundImageFix" result="shape"/>
<feColorMatrix in="SourceAlpha" type="matrix" values="0 0 0 0 0 0 0 0 0 0 0 0 0 0 0 0 0 0 127 0" result="hardAlpha"/>
<feOffset dy="4"/>
<feGaussianBlur stdDeviation="2"/>
<feComposite in2="hardAlpha" operator="arithmetic" k2="-1" k3="1"/>
<feColorMatrix type="matrix" values="0 0 0 0 0 0 0 0 0 0 0 0 0 0 0 0 0 0 0.25 0"/>
<feBlend mode="normal" in2="shape" result="effect1_innerShadow_1523_2"/>
</filter>
<filter id="filter36_i_1523_2" x="292.109" y="132.705" width="13.1951" height="24.375" filterUnits="userSpaceOnUse" color-interpolation-filters="sRGB">
<feFlood flood-opacity="0" result="BackgroundImageFix"/>
<feBlend mode="normal" in="SourceGraphic" in2="BackgroundImageFix" result="shape"/>
<feColorMatrix in="SourceAlpha" type="matrix" values="0 0 0 0 0 0 0 0 0 0 0 0 0 0 0 0 0 0 127 0" result="hardAlpha"/>
<feOffset dy="4"/>
<feGaussianBlur stdDeviation="2"/>
<feComposite in2="hardAlpha" operator="arithmetic" k2="-1" k3="1"/>
<feColorMatrix type="matrix" values="0 0 0 0 0 0 0 0 0 0 0 0 0 0 0 0 0 0 0.25 0"/>
<feBlend mode="normal" in2="shape" result="effect1_innerShadow_1523_2"/>
</filter>
<filter id="filter37_i_1523_2" x="317" y="92" width="13.1951" height="24.375" filterUnits="userSpaceOnUse" color-interpolation-filters="sRGB">
<feFlood flood-opacity="0" result="BackgroundImageFix"/>
<feBlend mode="normal" in="SourceGraphic" in2="BackgroundImageFix" result="shape"/>
<feColorMatrix in="SourceAlpha" type="matrix" values="0 0 0 0 0 0 0 0 0 0 0 0 0 0 0 0 0 0 127 0" result="hardAlpha"/>
<feOffset dy="4"/>
<feGaussianBlur stdDeviation="2"/>
<feComposite in2="hardAlpha" operator="arithmetic" k2="-1" k3="1"/>
<feColorMatrix type="matrix" values="0 0 0 0 0 0 0 0 0 0 0 0 0 0 0 0 0 0 0.25 0"/>
<feBlend mode="normal" in2="shape" result="effect1_innerShadow_1523_2"/>
</filter>
<filter id="filter38_i_1523_2" x="293" y="118" width="13.1951" height="19.1279" filterUnits="userSpaceOnUse" color-interpolation-filters="sRGB">
<feFlood flood-opacity="0" result="BackgroundImageFix"/>
<feBlend mode="normal" in="SourceGraphic" in2="BackgroundImageFix" result="shape"/>
<feColorMatrix in="SourceAlpha" type="matrix" values="0 0 0 0 0 0 0 0 0 0 0 0 0 0 0 0 0 0 127 0" result="hardAlpha"/>
<feOffset dy="4"/>
<feGaussianBlur stdDeviation="2"/>
<feComposite in2="hardAlpha" operator="arithmetic" k2="-1" k3="1"/>
<feColorMatrix type="matrix" values="0 0 0 0 0 0 0 0 0 0 0 0 0 0 0 0 0 0 0.25 0"/>
<feBlend mode="normal" in2="shape" result="effect1_innerShadow_1523_2"/>
</filter>
</defs>
</svg>
